<?xml version="1.0" standalone="no"?>
<!DOCTYPE svg PUBLIC "-//W3C//DTD SVG 20010904//EN"
 "http://www.w3.org/TR/2001/REC-SVG-20010904/DTD/svg10.dtd">
<svg version="1.0" xmlns="http://www.w3.org/2000/svg"
 width="5505.000000pt" height="3675.000000pt" viewBox="0 0 5505.000000 3675.000000"
 preserveAspectRatio="xMidYMid meet">

<g transform="translate(0.000000,3675.000000) scale(0.100000,-0.100000)"
fill="#000000" stroke="none">
<path d="M0 18375 l0 -18375 27525 0 27525 0 0 18375 0 18375 -27525 0 -27525
0 0 -18375z m27130 1810 c7 -9 8 -15 2 -15 -5 0 -12 7 -16 15 -3 8 -4 15 -2
15 2 0 9 -7 16 -15z m70 -86 c0 -6 -4 -7 -10 -4 -5 3 -10 11 -10 16 0 6 5 7
10 4 6 -3 10 -11 10 -16z m324 9 c5 -10 7 -10 12 0 3 6 12 12 20 12 9 0 12 -4
9 -10 -3 -5 3 -10 14 -10 12 0 21 -5 21 -10 0 -6 -17 -8 -41 -5 -45 6 -59 12
-59 26 0 13 17 11 24 -3z m-279 -29 c12 -19 -5 -23 -22 -6 -16 16 -16 17 -1
17 9 0 20 -5 23 -11z m495 4 c-8 -3 -21 -10 -28 -16 -9 -7 -11 -6 -6 7 3 9 16
16 28 15 14 0 16 -2 6 -6z m140 3 c0 -3 -4 -8 -10 -11 -5 -3 -10 -1 -10 4 0 6
5 11 10 11 6 0 10 -2 10 -4z m-228 -25 c-4 -10 -1 -13 10 -9 9 4 26 -5 42 -23
31 -33 48 -37 44 -11 -2 10 2 16 10 14 8 -1 11 1 8 6 -2 4 -1 14 4 21 6 11 9
9 14 -6 6 -17 14 -20 56 -18 40 2 50 -1 51 -14 0 -11 2 -12 6 -3 3 7 0 19 -6
26 -9 10 -5 13 19 14 20 0 28 -3 24 -11 -3 -7 1 -4 9 6 8 9 17 17 21 17 16 0
37 -31 30 -42 -9 -14 26 11 38 27 5 6 12 5 20 -3 6 -6 9 -12 5 -12 -4 0 -2 -6
5 -14 7 -8 16 -12 21 -9 4 2 7 -3 7 -11 0 -25 28 -19 33 7 2 12 3 7 1 -12 -2
-18 -5 -36 -8 -39 -9 -9 -51 -8 -63 1 -16 12 -17 47 -1 47 9 0 9 3 0 12 -19
19 -32 -3 -26 -44 4 -24 13 -38 25 -41 11 -3 19 0 19 6 0 7 5 4 11 -6 6 -10 9
-21 6 -23 -10 -11 -67 -22 -72 -14 -3 5 -21 4 -41 -2 -31 -8 -44 -6 -90 17
-39 19 -58 24 -70 17 -13 -7 -23 -4 -38 10 -11 10 -32 21 -46 25 -46 10 -110
46 -116 65 -3 10 -14 18 -25 18 -24 0 -25 17 -1 23 36 9 70 2 64 -12z m193 9
c-3 -5 -10 -10 -16 -10 -5 0 -9 5 -9 10 0 6 7 10 16 10 8 0 12 -4 9 -10z
m-1034 -23 c-13 -13 -26 -3 -16 12 3 6 11 8 17 5 6 -4 6 -10 -1 -17z m525 -23
l49 -45 -40 20 c-22 11 -49 27 -60 36 -11 9 -14 14 -7 10 6 -3 12 -2 12 4 0 5
-6 12 -12 14 -8 3 -8 6 -2 6 6 1 33 -20 60 -45z m-491 26 c3 -5 1 -10 -4 -10
-6 0 -11 5 -11 10 0 6 2 10 4 10 3 0 8 -4 11 -10z m535 -6 c0 -8 -4 -12 -10
-9 -5 3 -10 10 -10 16 0 5 5 9 10 9 6 0 10 -7 10 -16z m-608 -26 c-7 -7 -12
-8 -12 -2 0 14 12 26 19 19 2 -3 -1 -11 -7 -17z m114 -12 c22 -23 16 -28 -11
-10 -13 8 -29 13 -35 9 -5 -3 -10 -1 -10 4 0 16 39 13 56 -3z m-73 -14 c3 7 6
9 6 3 0 -5 -3 -16 -8 -24 -11 -16 -31 -6 -31 16 0 12 3 13 14 4 11 -9 15 -9
19 1z m1347 -28 c0 -14 -12 -19 -23 -8 -9 9 4 35 14 28 5 -3 9 -12 9 -20z m30
16 c0 -5 -5 -10 -11 -10 -5 0 -7 5 -4 10 3 6 8 10 11 10 2 0 4 -4 4 -10z
m-1305 -10 c3 -5 11 -7 18 -4 7 2 24 -4 37 -16 29 -25 30 -25 24 5 -2 14 0 25
5 25 5 0 11 -12 13 -27 2 -14 9 -28 17 -31 9 -3 11 2 6 17 -8 26 0 27 27 1 12
-11 16 -20 10 -20 -7 0 -12 -4 -12 -10 0 -5 7 -10 15 -10 8 0 15 5 15 10 0 15
36 12 50 -5 7 -8 19 -15 26 -15 8 0 33 -9 57 -20 63 -29 127 -50 153 -50 13 0
24 -4 24 -10 0 -5 11 -10 24 -10 13 0 26 -5 28 -11 2 -5 39 -12 82 -14 43 -3
84 -9 90 -14 9 -7 124 -31 150 -31 5 0 5 7 2 16 -5 12 -1 14 17 8 12 -3 31
-14 41 -23 18 -15 19 -15 13 3 -7 18 -6 18 19 2 14 -10 32 -15 39 -12 7 2 15
-3 18 -13 3 -14 12 -16 41 -13 40 5 44 -2 19 -30 -14 -16 -15 -18 0 -18 9 0
18 -4 21 -9 3 -5 -1 -8 -10 -7 -10 0 -18 -8 -20 -24 -3 -19 -2 -21 5 -10 9 12
11 12 17 -3 3 -9 3 -28 0 -41 -3 -13 0 -39 8 -56 12 -29 11 -35 -3 -51 -8 -11
-21 -19 -28 -19 -7 0 -21 -8 -31 -17 -24 -24 -72 -55 -72 -47 0 4 -8 -1 -19
-10 -10 -9 -22 -16 -27 -15 -21 4 -28 -2 -14 -11 12 -8 10 -10 -8 -10 -15 0
-21 -4 -16 -12 5 -8 2 -9 -9 -5 -11 4 -17 1 -17 -8 0 -14 -53 -30 -69 -21 -5
4 -12 -3 -16 -13 -8 -25 -41 -36 -60 -21 -12 10 -16 9 -20 -2 -7 -17 -93 -21
-113 -5 -9 7 -11 6 -6 -8 6 -15 4 -16 -14 -6 -25 13 -35 14 -28 2 3 -5 -15 -3
-41 5 -25 8 -58 14 -72 14 -14 0 -41 14 -60 30 -21 18 -45 30 -62 30 -20 0
-29 5 -29 16 0 9 -7 14 -17 12 -18 -4 -53 30 -53 51 0 6 -8 11 -17 11 -15 0
-16 2 -3 10 8 5 12 10 10 12 -32 20 -50 26 -55 18 -3 -6 1 -10 11 -10 13 0 14
-3 4 -15 -10 -12 -14 -12 -32 4 -21 20 -21 34 0 38 8 1 17 5 20 9 4 4 -6 4
-21 2 -17 -3 -30 -1 -33 6 -4 12 -12 54 -13 72 -2 20 -37 53 -64 59 -15 4 -27
11 -27 16 0 5 -9 9 -21 9 -11 0 -18 4 -14 9 3 5 -3 12 -12 14 -15 4 -15 5 3 6
11 0 26 -5 33 -11 10 -11 12 -9 9 7 -2 10 -14 22 -28 26 -14 4 -21 7 -16 8 5
1 3 8 -4 16 -7 8 -9 15 -5 15 5 0 6 2 3 5 -3 3 -13 3 -22 -1 -15 -6 -15 -7 0
-19 9 -6 15 -17 13 -24 -3 -8 -11 -6 -25 7 -11 10 -26 22 -34 25 -11 4 -9 7 8
12 25 8 30 35 6 35 -8 0 -12 5 -8 11 3 6 17 8 30 5 17 -5 24 -2 24 8 0 9 -7
12 -19 9 -26 -7 -35 12 -15 31 10 10 14 29 12 53 -3 42 14 55 34 24 17 -28 32
-26 53 5 16 25 16 26 -5 19 -19 -6 -21 -4 -15 17 6 22 5 22 -9 5 -11 -15 -19
-16 -33 -8 -14 8 -15 10 -3 11 9 0 23 9 33 20 18 21 52 27 62 10z m627 -2 c-9
-9 -15 -9 -24 0 -9 9 -7 12 12 12 19 0 21 -3 12 -12z m723 -36 c-6 -7 -35 18
-35 31 0 5 9 2 20 -8 11 -10 18 -20 15 -23z m-679 11 c9 8 77 -27 95 -49 13
-16 12 -17 -11 -10 -14 4 -41 11 -61 15 -48 10 -59 18 -59 43 0 17 2 18 15 8
9 -7 18 -10 21 -7z m641 -19 c-3 -3 -12 -4 -19 -1 -8 3 -5 6 6 6 11 1 17 -2
13 -5z m-490 -10 c-3 -3 -12 -4 -19 -1 -8 3 -5 6 6 6 11 1 17 -2 13 -5z m443
-31 c0 -11 -6 -14 -22 -9 -13 3 -32 6 -42 6 -24 0 -10 16 19 22 28 6 45 -1 45
-19z m80 17 c0 -5 -2 -10 -4 -10 -3 0 -8 5 -11 10 -3 6 -1 10 4 10 6 0 11 -4
11 -10z m-1550 -35 c-10 -12 -10 -18 1 -32 13 -16 12 -17 -3 -4 -21 16 -23 37
-5 44 20 8 20 8 7 -8z m33 -10 c-3 -9 -8 -14 -10 -11 -3 3 -2 9 2 15 9 16 15
13 8 -4z m1897 -36 c0 -4 -7 -6 -15 -3 -8 4 -15 10 -15 15 0 4 7 6 15 3 8 -4
15 -10 15 -15z m-1880 1 c0 -5 -4 -10 -9 -10 -5 0 -12 -13 -16 -30 -4 -16 -11
-30 -16 -30 -12 0 -11 7 7 46 15 32 34 45 34 24z m736 -15 c18 -15 18 -15 -5
-13 -14 2 -26 9 -29 16 -5 17 10 15 34 -3z m264 -45 c0 -5 -7 -10 -16 -10 -8
0 -12 5 -9 10 3 6 10 10 16 10 5 0 9 -4 9 -10z m276 -13 c8 3 14 1 14 -4 0
-10 -26 -14 -48 -7 -7 2 -10 9 -7 15 5 7 11 7 17 1 6 -6 17 -8 24 -5z m-1296
-27 c0 -5 -4 -10 -10 -10 -5 0 -10 5 -10 10 0 6 5 10 10 10 6 0 10 -4 10 -10z
m1465 -10 c3 -6 -1 -7 -9 -4 -18 7 -21 14 -7 14 6 0 13 -4 16 -10z m-144 -31
c-9 -22 -10 -22 -10 -3 -1 11 2 24 6 27 12 12 14 0 4 -24z m64 21 c3 -5 -1
-10 -9 -10 -9 0 -16 5 -16 10 0 6 4 10 9 10 6 0 13 -4 16 -10z m-1366 -31
c-16 -10 -23 -4 -14 10 3 6 11 8 17 5 6 -4 5 -9 -3 -15z m41 -29 c0 -5 -5 -10
-11 -10 -5 0 -7 5 -4 10 3 6 8 10 11 10 2 0 4 -4 4 -10z m1266 -57 c-11 -11
-19 6 -11 24 8 17 8 17 12 0 3 -10 2 -21 -1 -24z m-1168 1 c4 3 14 -4 22 -14
8 -10 17 -17 22 -14 4 3 8 1 8 -5 0 -9 -60 -8 -64 1 0 2 -7 14 -15 28 -13 23
-13 24 2 12 9 -8 20 -11 25 -8z m1129 -16 c-2 -7 0 -25 4 -40 4 -16 3 -30 -2
-33 -5 -4 -9 0 -9 9 0 8 -4 16 -9 18 -12 4 -2 58 11 58 5 0 8 -6 5 -12z
m-1157 -8 c0 -5 -2 -10 -4 -10 -3 0 -8 5 -11 10 -3 6 -1 10 4 10 6 0 11 -4 11
-10z m1190 -6 c0 -8 -5 -12 -10 -9 -6 4 -8 11 -5 16 9 14 15 11 15 -7z m-1107
-67 c3 -8 -3 -13 -14 -13 -22 0 -25 12 -6 19 6 3 13 6 13 6 1 1 4 -5 7 -12z
m1582 3 c3 -5 -1 -10 -9 -10 -9 0 -16 -5 -16 -11 0 -6 8 -8 18 -5 13 5 22 -4
35 -34 9 -22 17 -45 17 -51 0 -8 5 -8 15 1 8 7 15 17 15 22 0 6 -7 8 -15 4 -9
-3 -15 0 -15 9 0 21 20 18 41 -6 10 -11 22 -18 27 -15 13 8 24 -22 17 -48 -6
-20 -5 -20 9 -3 9 12 16 15 21 7 4 -6 13 -9 21 -6 17 7 18 -6 2 -22 -7 -7 -8
-12 -4 -12 5 0 2 -8 -5 -17 -11 -13 -11 -15 -1 -9 7 4 20 5 30 1 14 -5 14 -7
2 -16 -11 -7 5 -9 50 -5 195 17 580 28 580 17 0 -5 -80 -12 -177 -15 -303 -12
-730 -66 -1018 -131 -88 -20 -189 -43 -225 -50 -36 -8 -72 -17 -80 -20 -9 -3
-7 1 4 10 11 8 44 21 75 30 172 47 194 58 183 97 -2 10 1 18 7 18 7 0 9 5 6
11 -4 5 1 19 10 29 9 10 14 24 10 29 -3 6 1 14 9 17 9 3 16 10 16 16 0 5 -6 6
-12 3 -7 -4 -6 -1 2 7 9 7 14 22 12 33 -4 20 -4 20 17 1 24 -22 29 -11 6 14
-14 16 -13 17 11 14 15 -1 33 4 41 11 7 8 20 12 28 9 8 -4 15 -1 15 6 0 6 4 8
10 5 5 -3 20 3 32 15 16 15 24 17 30 8 6 -10 10 -10 17 1 5 7 13 11 19 7 5 -3
13 1 16 10 5 13 9 14 20 5 11 -9 15 -8 20 6 6 15 8 15 16 3 8 -12 10 -12 16 3
7 19 20 22 29 7z m70 -21 c-7 -11 -35 -12 -35 -1 0 4 9 8 20 9 11 1 18 -2 15
-8z m-1630 -19 c3 -5 1 -10 -4 -10 -6 0 -11 5 -11 10 0 6 2 10 4 10 3 0 8 -4
11 -10z m1655 0 c0 -5 -2 -10 -4 -10 -3 0 -8 5 -11 10 -3 6 -1 10 4 10 6 0 11
-4 11 -10z m-1550 -76 c0 -2 -7 -4 -15 -4 -8 0 -15 4 -15 10 0 5 7 7 15 4 8
-4 15 -8 15 -10z m-410 -35 c0 6 -5 11 -12 11 -6 0 -9 2 -6 5 9 9 38 -7 38
-21 0 -18 14 -18 30 1 14 17 45 21 34 4 -4 -8 0 -9 15 -4 13 4 21 2 21 -5 0
-8 9 -10 28 -6 17 4 22 3 14 -2 -10 -7 -6 -12 18 -21 18 -6 40 -19 49 -29 9
-11 23 -22 31 -26 9 -4 7 -5 -6 -2 -18 3 -21 -1 -20 -20 1 -23 16 -35 16 -14
0 6 5 10 11 10 8 0 10 -12 6 -36 -5 -31 -4 -34 9 -23 12 10 16 9 21 -9 3 -12
9 -22 14 -22 5 0 6 -6 3 -14 -4 -9 6 -16 30 -20 20 -4 36 -12 36 -18 0 -6 -10
-8 -22 -5 -51 13 -444 71 -548 82 -157 16 -472 35 -600 37 -107 1 -128 3 -80
7 36 4 170 6 298 6 127 0 232 3 232 8 0 4 -17 8 -37 8 -24 1 -29 3 -15 6 12 2
22 9 22 14 0 6 9 7 20 4 11 -4 20 -2 20 4 0 6 7 11 15 11 33 0 65 23 65 47 0
19 4 23 18 19 44 -14 102 -9 117 10 13 18 14 18 15 1 0 -10 -7 -20 -15 -23
-21 -9 -19 -24 4 -24 12 0 21 9 25 26 l7 27 24 -23 c14 -13 28 -21 31 -17 4 4
-1 9 -10 13 -9 3 -16 15 -16 25 0 18 1 19 25 3 15 -10 25 -12 25 -5z m2080
-29 c0 -5 -2 -10 -4 -10 -3 0 -8 5 -11 10 -3 6 -1 10 4 10 6 0 11 -4 11 -10z
m963 -20 c-10 -9 -329 -22 -319 -13 8 8 263 29 299 24 16 -2 25 -7 20 -11z
m-3398 -10 c3 -5 1 -10 -4 -10 -6 0 -11 5 -11 10 0 6 2 10 4 10 3 0 8 -4 11
-10z m1615 -100 c-8 -5 -19 -10 -25 -10 -5 0 -3 5 5 10 8 5 20 10 25 10 6 0 3
-5 -5 -10z m610 -60 c0 -6 -12 -15 -27 -21 -16 -7 -37 -16 -48 -20 -11 -5 -56
-16 -100 -23 -225 -39 -344 -68 -435 -107 -52 -22 -102 -47 -111 -55 -8 -8
-19 -14 -23 -14 -4 0 -19 -9 -33 -20 l-26 -20 -23 26 c-27 28 -32 69 -10 77 8
3 30 4 48 1 21 -4 62 4 112 20 43 14 83 26 89 26 5 0 34 11 63 25 29 14 81 31
116 38 35 8 73 19 85 25 12 7 44 12 72 12 28 0 70 6 93 14 81 27 158 34 158
16z m27 -52 c-5 -14 51 -15 106 -3 39 8 67 -2 67 -26 0 -10 7 -19 15 -19 8 0
15 4 15 9 0 5 9 7 20 4 23 -6 27 -33 5 -33 -8 0 -15 -5 -15 -11 0 -5 4 -7 10
-4 6 4 8 -7 4 -27 -4 -25 -3 -29 5 -18 13 18 14 1 1 -20 -7 -12 -10 -11 -15 5
-19 57 -26 63 -59 54 -41 -12 -46 -11 -46 5 0 8 12 19 28 24 l27 10 -31 1
c-26 1 -33 -3 -37 -25 -5 -29 10 -39 47 -32 15 3 27 -2 35 -14 11 -17 8 -18
-31 -12 -24 3 -49 8 -57 10 -8 3 -11 -1 -7 -11 3 -8 1 -15 -5 -15 -18 0 -20
26 -5 55 15 29 13 45 -5 45 -5 0 -9 -11 -9 -25 0 -14 -5 -25 -11 -25 -6 0 -8
-8 -4 -19 3 -11 -1 -25 -10 -34 -19 -20 -20 -33 0 -17 8 7 16 10 16 6 1 -3 3
-10 4 -16 1 -5 3 -14 4 -20 0 -5 17 -12 36 -16 19 -3 32 -10 29 -15 -8 -13 8
-10 29 5 9 7 17 21 17 31 0 14 3 15 15 5 10 -8 13 -21 9 -39 l-6 -26 18 25 c9
14 18 26 20 28 5 7 44 -19 44 -30 0 -7 -5 -6 -15 2 -12 10 -16 8 -24 -14 -6
-15 -21 -28 -36 -32 -30 -7 -46 3 -25 16 8 6 12 10 8 10 -3 0 -13 3 -22 6 -10
4 -16 1 -16 -9 0 -19 -39 -11 -47 9 -4 11 -11 11 -40 -1 -19 -8 -40 -12 -46
-8 -21 13 -92 21 -104 12 -8 -7 -25 -4 -54 9 -37 17 -45 18 -68 6 -67 -35
-133 15 -90 69 25 33 24 40 -3 32 -18 -5 -20 -4 -8 4 22 15 3 28 -52 35 -32 5
-48 4 -48 -3 0 -6 -5 -11 -12 -11 -8 0 -7 5 3 15 10 10 37 17 75 18 36 1 63 7
70 16 6 8 64 24 130 37 143 27 158 28 151 12z m-2019 -10 c-2 -5 -7 -9 -11 -9
-4 1 -16 1 -27 1 -11 0 -20 4 -20 9 0 5 14 9 30 9 17 -1 29 -5 28 -10z m482
-62 c47 -13 110 -29 140 -36 68 -16 87 -25 100 -51 13 -23 4 -59 -13 -59 -7 0
-25 7 -42 16 -72 38 -77 37 -43 -10 34 -49 44 -108 31 -171 -6 -27 -14 -39
-24 -38 -9 2 -20 -9 -26 -25 l-11 -27 -1 27 c-1 15 4 30 10 34 8 4 7 10 -1 18
-8 8 -14 7 -21 -6 -10 -18 -54 -25 -61 -10 -1 4 -17 14 -34 23 -27 14 -38 15
-80 4 -33 -8 -56 -9 -74 -2 -23 9 -31 7 -50 -11 -18 -17 -26 -19 -46 -10 -20
9 -27 8 -37 -6 -12 -17 -15 -16 -50 4 -20 12 -37 29 -37 38 0 13 -2 14 -9 4
-4 -8 -19 -13 -32 -11 -13 1 -32 -1 -41 -5 -9 -4 -27 -6 -40 -4 -19 2 -23 9
-23 37 0 33 9 43 48 55 26 8 32 6 29 -10 -2 -8 5 -14 18 -14 11 0 20 2 20 4 0
2 3 11 6 19 9 23 -43 28 -118 10 -38 -9 -68 -20 -68 -25 0 -4 -8 -8 -17 -8
-14 0 -13 4 6 24 13 14 18 26 12 30 -10 6 -20 -2 -45 -38 -8 -12 -27 -21 -50
-22 l-36 -3 30 29 c17 16 36 27 44 24 8 -3 19 3 25 15 10 17 16 19 37 11 38
-15 42 -12 11 9 -15 10 -35 27 -42 39 -10 13 -22 18 -35 15 -23 -6 -26 -19 -7
-26 9 -4 9 -6 -1 -6 -8 -1 -16 8 -19 19 -4 16 -8 18 -19 9 -11 -9 -14 -5 -14
25 0 24 -5 36 -14 36 -8 0 -17 7 -20 16 -9 23 -1 28 14 9 17 -21 30 -19 30 5
0 11 6 20 14 20 9 0 12 -8 8 -25 -3 -17 0 -25 10 -25 22 0 29 11 17 26 -15 18
8 29 28 12 14 -11 16 -11 11 2 -2 8 -19 16 -36 18 -18 2 -30 8 -27 13 4 5 1 9
-4 9 -6 0 -11 -4 -11 -9 0 -5 -10 -6 -22 -3 -22 6 -22 6 3 12 48 13 237 1 408
-26 51 -8 96 -12 99 -9 3 3 -3 5 -13 5 -10 0 -34 10 -53 22 -30 19 -33 23 -17
28 25 9 169 -14 275 -44z m492 -8 c-9 -9 -15 -9 -24 0 -9 9 -7 12 12 12 19 0
21 -3 12 -12z m590 -23 c-4 -26 -22 -35 -22 -12 0 10 18 37 26 37 1 0 -1 -11
-4 -25z m-1835 -35 c-1 -11 -6 -21 -12 -24 -7 -2 -10 7 -7 25 5 31 22 31 19
-1z m3487 -27 c-4 -47 -20 -112 -30 -121 -4 -4 -4 11 0 33 4 22 9 61 13 87 7
56 22 56 17 1z m-1774 22 c7 -9 10 -18 6 -22 -3 -3 -6 -1 -6 5 0 7 -7 12 -15
12 -8 0 -15 5 -15 10 0 15 16 12 30 -5z m231 6 c-8 -5 -16 -17 -17 -25 -1 -9
1 -14 6 -11 4 3 10 -2 14 -10 7 -19 -7 -27 -53 -29 -30 -1 -37 2 -34 15 3 8
-3 21 -12 29 -13 11 -15 10 -9 -6 6 -15 4 -17 -6 -7 -16 14 -3 36 17 29 9 -4
21 -2 27 3 10 8 37 15 71 19 6 1 4 -2 -4 -7z m-276 -21 c-3 -5 -11 -10 -16
-10 -6 0 -7 5 -4 10 3 6 11 10 16 10 6 0 7 -4 4 -10z m775 1 c0 -5 -9 -7 -20
-4 -11 3 -20 7 -20 9 0 2 9 4 20 4 11 0 20 -4 20 -9z m40 -1 c0 -5 -5 -10 -11
-10 -5 0 -7 5 -4 10 3 6 8 10 11 10 2 0 4 -4 4 -10z m-2440 -10 c0 -5 -5 -10
-11 -10 -5 0 -7 5 -4 10 3 6 8 10 11 10 2 0 4 -4 4 -10z m1215 -30 c0 -21 -5
-26 -32 -28 -27 -3 -33 0 -33 15 0 26 21 44 45 41 14 -2 20 -11 20 -28z m311
-26 c-11 -35 -11 -35 -14 -8 -3 21 9 42 24 44 1 0 -4 -16 -10 -36z m-1490 -9
c1 -8 -4 -11 -11 -8 -8 2 -11 11 -8 19 6 16 16 11 19 -11z m-1066 -11 c0 -8
-4 -14 -10 -14 -5 0 -10 9 -10 21 0 11 5 17 10 14 6 -3 10 -13 10 -21z m3570
-14 c0 -5 -4 -10 -10 -10 -5 0 -10 5 -10 10 0 6 5 10 10 10 6 0 10 -4 10 -10z
m-2526 -16 c8 -20 -1 -34 -20 -34 -8 0 -14 -4 -14 -10 0 -5 -6 -10 -14 -10
-17 0 -29 41 -16 54 7 7 10 4 10 -6 0 -11 8 -16 21 -15 14 1 19 7 16 19 -6 22
9 24 17 2z m1887 -10 c25 -22 24 -39 -3 -58 -39 -27 -108 -17 -121 18 -3 8 2
25 12 38 23 28 82 30 112 2z m199 13 c19 -7 41 -16 48 -20 7 -5 12 -4 12 2 0
15 63 14 78 -1 34 -34 -1 -71 -52 -57 -23 7 -32 5 -38 -5 -10 -18 -61 -30 -89
-21 -25 8 -52 68 -44 96 7 22 34 24 85 6z m-3120 -18 c0 -5 -4 -9 -10 -9 -5 0
-10 7 -10 16 0 8 5 12 10 9 6 -3 10 -10 10 -16z m2266 -24 c26 -19 -1 -20 -36
0 -23 13 -23 14 -4 15 11 0 29 -7 40 -15z m-68 -4 c11 -6 10 -9 -5 -13 -10 -3
-24 -3 -32 0 -11 4 -11 6 0 13 17 11 21 11 37 0z m815 -7 c-6 -15 -29 -19 -37
-5 -7 11 -1 16 23 18 13 1 18 -3 14 -13z m1387 -44 c-29 -57 -36 -45 -8 13 13
26 24 43 26 38 2 -5 -6 -28 -18 -51z m-4375 9 c9 -17 14 -36 12 -42 -4 -12
-37 44 -37 63 0 18 9 11 25 -21z m2218 17 c4 -10 1 -13 -8 -9 -8 3 -12 9 -9
14 7 12 11 11 17 -5z m257 -68 c23 -78 69 -156 130 -222 57 -60 67 -67 153
-95 100 -33 171 -46 287 -56 139 -11 174 -17 159 -26 -28 -19 -299 11 -420 46
-81 23 -165 72 -208 122 -66 74 -180 328 -129 285 8 -6 21 -31 28 -54z m111
-34 c12 -13 16 -24 11 -28 -13 -8 -52 55 -51 80 0 15 2 14 10 -6 6 -14 19 -35
30 -46z m668 -29 c0 -5 -6 -1 -14 9 -8 11 -15 24 -15 30 0 5 7 1 15 -10 8 -10
14 -23 14 -29z m-2014 -45 c3 -5 1 -10 -4 -10 -6 0 -11 5 -11 10 0 6 2 10 4
10 3 0 8 -4 11 -10z m1395 -11 c0 -5 -4 -9 -10 -9 -5 0 -10 7 -10 16 0 8 5 12
10 9 6 -3 10 -10 10 -16z m530 11 c0 -5 -4 -10 -10 -10 -5 0 -10 5 -10 10 0 6
5 10 10 10 6 0 10 -4 10 -10z m-484 -41 c12 -20 108 -75 154 -88 50 -15 66
-18 130 -26 25 -3 75 -10 111 -15 36 -5 123 -12 195 -16 71 -3 131 -7 133 -9
10 -10 -88 -26 -128 -21 -25 4 -92 7 -149 8 -57 1 -106 6 -109 11 -3 5 -26 7
-52 6 -25 -1 -57 3 -71 9 -43 18 -65 25 -72 24 -4 -1 -22 7 -40 18 -18 10 -46
26 -63 35 -39 21 -83 75 -61 75 8 0 18 -5 22 -11z m571 -14 c8 -9 13 -19 10
-22 -6 -5 -37 21 -37 31 0 10 11 6 27 -9z m-1508 -21 c-34 -36 -59 -49 -59
-29 0 8 5 15 10 15 6 0 20 9 32 20 32 29 46 24 17 -6z m1681 22 c0 -2 -7 -6
-15 -10 -8 -3 -15 -1 -15 4 0 6 7 10 15 10 8 0 15 -2 15 -4z m-120 -27 c0 -6
-4 -7 -10 -4 -5 3 -10 11 -10 16 0 6 5 7 10 4 6 -3 10 -11 10 -16z m85 -39 c3
-5 1 -10 -4 -10 -6 0 -11 5 -11 10 0 6 2 10 4 10 3 0 8 -4 11 -10z m-1930 -10
c-4 -7 2 -9 19 -4 14 3 40 1 58 -5 25 -8 46 -8 86 3 57 14 69 5 22 -19 -38
-20 -40 -40 -3 -30 23 5 25 4 13 -10 -7 -9 -21 -13 -31 -10 -11 4 -19 2 -19
-3 0 -5 -6 -9 -12 -9 -7 -1 -44 -8 -83 -17 -85 -19 -109 -20 -99 -5 5 9 -9 10
-52 5 -106 -11 -239 -18 -232 -11 9 9 175 45 209 45 35 0 83 22 87 39 2 8 11
20 20 28 21 15 25 16 17 3z m1985 -64 c0 -2 -7 -7 -16 -10 -8 -3 -12 -2 -9 4
6 10 25 14 25 6z m-263 -231 c0 -8 -4 -15 -9 -15 -10 0 -11 14 -1 23 9 10 10
9 10 -8z m31 -54 c-7 -11 -16 -17 -20 -14 -10 5 10 33 23 33 5 0 4 -9 -3 -19z
m422 -16 c0 -5 -5 -3 -10 5 -5 8 -10 20 -10 25 0 6 5 3 10 -5 5 -8 10 -19 10
-25z m-354 10 c16 -8 25 -15 19 -16 -5 0 -1 -4 10 -9 14 -6 16 -9 4 -9 -8 -1
-24 7 -35 18 -16 15 -25 16 -40 8 -17 -9 -18 -9 -5 6 16 20 12 20 47 2z m434
-25 c0 -5 -5 -10 -11 -10 -5 0 -7 5 -4 10 3 6 8 10 11 10 2 0 4 -4 4 -10z
m-437 -25 c-3 -9 -8 -14 -10 -11 -3 3 -2 9 2 15 9 16 15 13 8 -4z m-1963 -15
c-24 -15 -36 -11 -14 4 10 8 21 12 24 10 2 -3 -2 -9 -10 -14z m1800 -1 c0 -6
-4 -7 -10 -4 -5 3 -10 11 -10 16 0 6 5 7 10 4 6 -3 10 -11 10 -16z m275 11 c3
-5 -1 -10 -9 -10 -9 0 -16 5 -16 10 0 6 4 10 9 10 6 0 13 -4 16 -10z m-1930
-10 c3 -5 2 -10 -4 -10 -5 0 -13 5 -16 10 -3 6 -2 10 4 10 5 0 13 -4 16 -10z
m1891 -27 c9 -20 28 -52 42 -71 24 -32 25 -35 8 -44 -12 -7 -16 -17 -12 -34 4
-13 2 -24 -3 -24 -5 0 -11 9 -14 21 -3 12 -10 18 -16 14 -7 -3 -11 3 -11 16 0
18 2 20 15 9 22 -19 44 3 25 24 -7 9 -16 13 -21 10 -5 -3 -6 3 -2 12 5 13 3
15 -7 9 -10 -6 -12 -4 -6 10 4 10 3 21 -2 24 -10 7 -25 61 -17 61 3 0 13 -17
21 -37z m-1856 17 c0 -5 -2 -10 -4 -10 -3 0 -8 5 -11 10 -3 6 -1 10 4 10 6 0
11 -4 11 -10z m1664 -15 c-4 -8 -8 -15 -10 -15 -2 0 -4 7 -4 15 0 8 4 15 10
15 5 0 7 -7 4 -15z m72 -9 c33 6 34 6 28 -24 -8 -41 12 -50 38 -17 11 14 23
24 26 21 2 -3 0 -12 -7 -20 -9 -11 -7 -15 9 -19 11 -3 20 -10 20 -16 0 -7 -7
-7 -24 0 -19 9 -27 8 -42 -7 -19 -19 -21 -64 -3 -64 5 0 9 2 9 4 0 2 3 12 7
22 4 12 3 15 -5 10 -7 -4 -12 -3 -12 2 0 15 30 23 48 12 16 -9 16 -9 0 -10
-10 0 -18 -4 -18 -10 0 -5 8 -14 18 -20 12 -8 13 -13 5 -16 -15 -6 -18 -44 -4
-44 5 0 11 8 14 18 2 9 4 -1 3 -23 -1 -22 -5 -43 -11 -47 -5 -4 -6 -10 -2 -14
12 -12 35 28 29 50 -5 19 -4 19 11 7 15 -12 17 -11 17 3 0 9 6 16 14 16 10 0
13 9 10 33 -2 17 -1 26 2 19 5 -10 9 -10 20 -1 8 7 18 9 22 5 4 -4 -4 -15 -17
-25 -16 -12 -20 -21 -12 -25 6 -4 11 -14 11 -22 0 -8 -4 -12 -10 -9 -5 3 -10
-1 -10 -9 0 -9 -4 -16 -9 -16 -5 0 -7 -9 -4 -21 4 -12 8 -16 13 -10 4 8 16 8
41 -1 34 -11 49 -24 49 -43 0 -5 -5 -3 -10 5 -8 13 -10 12 -10 -2 0 -10 5 -18
12 -18 6 0 9 -2 6 -5 -9 -10 -37 6 -41 23 -3 13 -7 10 -17 -10 -7 -16 -17 -28
-22 -28 -4 0 -8 -5 -8 -11 0 -5 4 -8 8 -5 5 3 9 -8 9 -24 0 -34 -22 -47 -36
-22 -9 15 -10 14 -11 -5 0 -13 -5 -23 -11 -23 -5 0 -7 -5 -4 -10 8 -12 -16
-38 -31 -33 -5 2 -8 20 -6 40 3 25 1 34 -7 29 -6 -4 -11 -14 -11 -21 0 -11 -6
-12 -22 -6 -31 11 -38 35 -7 26 22 -7 22 -7 6 9 -13 13 -21 15 -37 6 -16 -9
-20 -8 -22 7 -2 33 -3 38 -11 51 -13 20 -24 14 -22 -12 2 -18 -1 -23 -11 -19
-9 3 -12 13 -9 24 5 15 1 19 -19 19 -28 0 -56 37 -37 49 6 4 3 11 -9 19 -16 9
-20 9 -20 0 0 -9 -3 -8 -12 1 -10 11 -10 14 0 18 6 3 12 9 12 14 0 6 -4 7 -10
4 -5 -3 -10 1 -10 10 0 9 -4 13 -10 10 -6 -4 -10 9 -11 32 -1 34 -2 35 -8 10
l-6 -28 -18 21 c-10 12 -15 29 -12 40 4 12 -1 22 -12 29 -16 9 -16 13 -5 32
11 18 12 23 1 30 -8 4 -10 11 -6 15 4 4 2 13 -4 21 -16 18 -1 17 17 -2 9 -9
11 -15 4 -15 -6 0 -8 -4 -5 -10 10 -16 23 -12 30 10 3 11 11 20 16 20 16 0 10
-19 -11 -37 -11 -10 -20 -20 -20 -24 0 -14 40 -17 41 -3 1 8 2 20 3 27 1 6 10
11 20 9 10 -2 22 2 26 8 4 7 12 0 20 -19 7 -17 15 -31 19 -32 3 0 33 -2 65 -4
50 -2 57 0 42 10 -9 7 -15 19 -14 26 2 10 -7 13 -34 11 -22 -2 -38 2 -38 8 0
5 5 10 10 10 6 0 11 8 11 18 1 16 2 16 6 -1 4 -14 11 -16 39 -11z m-2146 4 c0
-5 -4 -10 -10 -10 -5 0 -10 5 -10 10 0 6 5 10 10 10 6 0 10 -4 10 -10z m503
-13 c-4 -7 -15 -18 -25 -25 -13 -10 -17 -20 -12 -35 5 -20 5 -20 -10 -7 -20
19 -11 61 12 53 12 -5 14 -2 9 11 -4 10 -3 15 3 11 6 -3 10 -1 10 5 0 6 5 8
10 5 6 -4 7 -12 3 -18z m-648 -7 c3 -5 -1 -10 -9 -10 -9 0 -16 5 -16 10 0 6 4
10 9 10 6 0 13 -4 16 -10z m490 0 c-3 -5 -14 -10 -23 -10 -15 0 -15 2 -2 10
20 13 33 13 25 0z m80 4 c12 -5 13 -9 5 -14 -9 -6 -9 -16 1 -44 7 -20 17 -36
21 -36 4 0 8 -4 8 -10 0 -5 -5 -9 -11 -7 -13 3 -26 -18 -34 -55 -3 -16 -12
-28 -20 -28 -8 0 -15 -5 -15 -11 0 -15 -28 -41 -38 -35 -4 2 -8 -4 -8 -14 0
-14 3 -16 13 -8 20 17 22 7 9 -44 -12 -46 -36 -87 -36 -60 0 19 -17 14 -45
-14 -25 -25 -27 -25 -41 -8 -14 18 -15 17 -9 -9 4 -23 1 -29 -20 -37 -14 -5
-25 -14 -25 -19 0 -6 7 -8 15 -5 11 5 13 2 9 -10 -4 -10 -12 -15 -19 -12 -7 2
-18 -1 -25 -7 -10 -9 -14 -9 -17 1 -7 19 -24 14 -21 -5 2 -12 -2 -17 -12 -15
-10 3 -9 -3 5 -19 l20 -22 -22 12 c-20 10 -23 9 -23 -9 0 -14 -7 -20 -21 -20
-18 0 -20 4 -14 31 7 31 6 32 -21 26 -16 -3 -37 -1 -46 4 -13 7 -16 6 -12 -5
3 -8 14 -16 24 -19 19 -5 21 -21 6 -45 -4 -7 -5 -21 -2 -30 4 -11 -1 -9 -14 6
-11 13 -24 21 -30 17 -6 -4 -7 1 -4 10 4 10 14 15 25 12 27 -7 23 7 -5 23 -25
13 -43 53 -26 58 6 2 10 15 10 29 0 22 -3 24 -24 19 -27 -7 -56 1 -56 16 0 5
4 7 9 4 11 -7 41 3 41 14 0 5 -16 7 -35 6 -19 -2 -35 1 -35 6 0 6 12 7 27 3
21 -5 24 -3 17 7 -14 18 -12 40 5 46 10 3 13 -1 9 -14 -3 -11 1 -26 9 -33 18
-16 30 -6 15 12 -11 13 -10 36 4 79 4 14 2 18 -5 14 -6 -4 -11 -14 -11 -22 0
-8 -4 -14 -10 -14 -15 0 -12 9 9 36 10 13 21 20 25 17 3 -3 6 1 6 10 0 10 -3
16 -7 16 -20 -3 -23 2 -9 16 19 20 27 19 19 -2 -4 -11 -2 -15 3 -10 5 5 9 16
10 25 3 46 5 52 19 52 11 0 14 -7 9 -25 -4 -15 -2 -25 5 -25 6 0 11 -4 11 -10
0 -5 -6 -10 -14 -10 -26 0 -36 -23 -19 -45 15 -20 15 -20 10 3 -3 12 -1 20 4
16 5 -3 9 0 9 5 0 6 7 11 15 11 20 0 19 29 0 36 -22 9 2 36 25 29 20 -6 34 27
19 42 -6 6 -1 17 11 28 16 14 20 15 20 4 0 -8 -4 -19 -10 -25 -5 -5 -6 -15 -1
-22 6 -10 12 -5 21 17 12 30 35 45 24 16 -4 -10 0 -15 15 -15 25 0 59 31 53
49 -3 10 0 10 17 2 11 -7 21 -18 21 -25 0 -8 7 -19 15 -26 18 -15 21 1 4 29
-9 13 -9 23 0 37 10 16 10 15 5 -10 -5 -19 -3 -27 3 -23 6 4 14 0 17 -9 8 -22
28 -6 21 17 -4 11 -2 19 6 19 9 0 8 4 -1 15 -19 23 3 18 29 -6 12 -12 25 -18
29 -14 4 4 1 10 -5 12 -24 8 -13 22 15 20 21 -2 26 2 24 16 -3 19 -1 20 23 11z
m-221 -30 c4 -11 0 -11 -19 2 -30 20 -31 24 -6 17 11 -3 22 -11 25 -19z m-274
12 c0 -4 -59 -36 -66 -36 -2 0 4 9 13 20 15 17 53 28 53 16z m2444 -11 c3 -8
1 -15 -3 -15 -5 0 -11 7 -15 15 -3 8 -1 15 3 15 5 0 11 -7 15 -15z m-2129 -4
c3 -5 1 -12 -4 -15 -5 -3 -11 1 -15 9 -6 16 9 21 19 6z m-185 -31 c0 -5 -2
-10 -4 -10 -3 0 -8 5 -11 10 -3 6 -1 10 4 10 6 0 11 -4 11 -10z m-320 -15 c0
-8 -7 -15 -15 -15 -16 0 -20 12 -8 23 11 12 23 8 23 -8z m429 -6 c-16 -10 -23
-4 -14 10 3 6 11 8 17 5 6 -4 5 -9 -3 -15z m2220 2 c10 -6 10 -10 1 -16 -7 -4
-19 0 -28 9 -14 13 -14 16 -2 16 8 0 21 -4 29 -9z m-2409 -15 c0 -8 -4 -18
-10 -21 -5 -3 -10 3 -10 14 0 12 5 21 10 21 6 0 10 -6 10 -14z m70 -11 c0 -29
-28 -45 -41 -24 -12 19 -11 29 2 29 5 0 7 -6 4 -12 -3 -7 2 -3 12 9 23 28 23
28 23 -2z m-126 -16 c-3 -5 -10 -7 -15 -3 -5 3 -7 10 -3 15 3 5 10 7 15 3 5
-3 7 -10 3 -15z m-69 -35 c-9 -14 -20 -22 -23 -18 -4 3 -1 9 6 11 6 3 12 13
12 22 0 21 13 37 18 21 2 -6 -4 -22 -13 -36z m-58 14 c-3 -8 -6 -5 -6 6 -1 11
2 17 5 13 3 -3 4 -12 1 -19z m2633 18 c0 -2 3 -13 7 -23 6 -16 5 -16 -10 -4
-15 12 -17 10 -17 -15 -1 -26 -2 -27 -14 -12 -7 10 -16 15 -19 11 -4 -3 -7 4
-7 16 0 17 4 21 15 17 8 -3 15 -1 15 4 0 6 7 10 15 10 8 0 15 -2 15 -4z
m-2618 -64 c-7 -2 -12 -11 -12 -20 0 -14 -2 -15 -10 -2 -11 17 7 43 23 33 8
-5 7 -8 -1 -11z m2648 -3 c0 -6 -4 -7 -10 -4 -5 3 -10 11 -10 16 0 6 5 7 10 4
6 -3 10 -11 10 -16z m-2030 -9 c0 -5 -8 -10 -17 -10 -15 0 -16 2 -3 10 19 12
20 12 20 0z m1954 -26 c5 -12 10 -13 19 -6 9 8 19 5 37 -9 21 -17 22 -20 5
-15 -11 2 -34 7 -52 11 -39 8 -66 35 -35 35 11 0 23 -7 26 -16z m-2488 -36
c-9 -12 -16 -19 -16 -15 0 11 24 47 28 42 2 -2 -3 -14 -12 -27z m2579 -26 c-3
-3 -11 0 -18 7 -9 10 -8 11 6 5 10 -3 15 -9 12 -12z m-2589 -31 c-4 -6 -15
-11 -24 -10 -11 0 -12 3 -4 6 6 2 12 12 12 21 0 12 3 13 11 5 6 -6 8 -16 5
-22z m2614 5 c0 -2 -7 -7 -16 -10 -8 -3 -12 -2 -9 4 6 10 25 14 25 6z m-109
-25 c-17 -11 -7 -41 13 -41 10 0 14 -11 13 -37 -1 -21 4 -38 11 -41 10 -3 10
-7 1 -18 -12 -15 -30 -19 -28 -6 4 25 -4 33 -12 12 l-10 -25 -15 28 c-16 29
-40 38 -30 11 5 -14 4 -15 -8 -5 -12 10 -11 15 8 36 18 21 23 22 37 9 14 -12
18 -13 28 0 9 11 7 15 -14 20 -15 4 -25 13 -25 24 0 20 18 42 35 42 5 0 4 -4
-4 -9z m-2561 -11 c0 -5 -2 -10 -4 -10 -3 0 -8 5 -11 10 -3 6 -1 10 4 10 6 0
11 -4 11 -10z m1327 -52 c-3 -8 -6 -5 -6 6 -1 11 2 17 5 13 3 -3 4 -12 1 -19z
m-857 8 c0 -2 -7 -7 -16 -10 -8 -3 -12 -2 -9 4 6 10 25 14 25 6z m802 -18
c-21 -21 -13 -25 36 -18 26 4 57 4 70 -1 12 -5 26 -8 30 -8 20 3 23 -3 11 -18
-13 -15 -12 -15 8 -5 28 16 33 15 33 -3 0 -15 24 -16 48 -2 17 11 15 -8 -3
-27 -21 -21 -19 -29 6 -21 16 5 19 4 14 -5 -4 -7 -2 -16 6 -21 12 -7 12 -10 0
-21 -11 -11 -13 -11 -6 1 5 9 3 12 -6 9 -8 -3 -13 -15 -11 -26 2 -12 -2 -22
-7 -22 -6 0 -11 -11 -11 -24 0 -14 -4 -28 -10 -31 -5 -3 -10 1 -10 10 0 9 -4
14 -9 11 -4 -3 -6 -17 -3 -31 3 -20 7 -23 18 -14 11 9 14 8 14 -3 0 -22 -21
-38 -49 -38 -21 0 -23 -2 -11 -10 11 -8 8 -9 -12 -4 -20 4 -28 2 -28 -7 0 -10
-3 -10 -11 -2 -15 15 -39 -6 -31 -27 4 -11 0 -10 -16 4 -17 15 -19 22 -11 33
9 9 9 13 0 13 -6 0 -11 -5 -11 -10 0 -6 -11 -8 -25 -5 -14 3 -35 7 -48 10 -28
5 -109 84 -100 98 3 5 10 1 16 -9 15 -27 34 -44 40 -37 3 3 0 12 -8 20 -8 8
-15 26 -15 40 0 19 -4 24 -16 19 -12 -5 -14 -1 -8 16 5 16 3 20 -10 15 -8 -3
-18 -2 -21 2 -3 5 2 12 11 15 11 4 14 13 11 27 -4 15 -2 19 9 15 16 -6 19 5 5
20 -5 5 3 18 20 32 23 19 29 20 29 8 0 -9 5 -16 10 -16 6 0 10 5 10 11 0 12
40 48 55 49 5 0 4 -5 -3 -12z m-1162 -47 c0 -6 -5 -13 -10 -16 -6 -4 -10 -12
-9 -18 1 -7 -3 -23 -9 -37 -13 -31 -15 -16 -3 28 6 20 6 32 0 32 -5 0 -9 5 -9
10 0 6 9 10 20 10 11 0 20 -4 20 -9z m892 -18 c-6 -2 -9 -9 -6 -15 3 -5 -2
-16 -12 -24 -18 -14 -18 -14 0 -29 23 -17 15 -31 -11 -20 -20 9 -75 17 -113
17 -23 0 -24 1 -6 13 13 10 25 11 42 5 31 -12 68 4 83 36 6 13 16 24 23 23 10
0 10 -2 0 -6z m1474 -2 c-3 -5 1 -11 8 -14 8 -3 20 -16 27 -29 11 -20 8 -19
-23 7 -33 28 -39 45 -17 45 6 0 8 -4 5 -9z m-1366 -11 c0 -5 -8 -10 -17 -10
-15 0 -16 2 -3 10 19 12 20 12 20 0z m560 -23 c0 -18 2 -19 11 -7 8 12 12 12
16 2 4 -10 8 -10 19 -1 19 16 50 3 35 -15 -6 -7 -8 -16 -4 -19 3 -4 0 -8 -8
-8 -74 -7 -95 -7 -108 4 -12 10 -14 9 -8 -5 7 -21 -12 -36 -23 -18 -5 8 -2 23
6 35 8 12 12 30 8 39 -7 17 11 23 21 6 10 -16 28 -11 21 6 -3 8 -2 12 4 9 6
-3 10 -16 10 -28z m-1350 3 c0 -5 -2 -10 -4 -10 -3 0 -8 5 -11 10 -3 6 -1 10
4 10 6 0 11 -4 11 -10z m-206 -48 c-4 -12 -10 -22 -15 -22 -12 0 -11 17 2 25
6 4 8 14 4 24 -4 11 -3 13 4 6 6 -6 8 -20 5 -33z m916 34 c0 -3 -4 -8 -10 -11
-5 -3 -10 -1 -10 4 0 6 5 11 10 11 6 0 10 -2 10 -4z m-720 -36 c0 -5 -7 -10
-16 -10 -8 0 -12 5 -9 10 3 6 10 10 16 10 5 0 9 -4 9 -10z m-90 -9 c0 -6 -4
-13 -10 -16 -5 -3 -10 1 -10 9 0 9 5 16 10 16 6 0 10 -4 10 -9z m35 -11 c-3
-5 -10 -10 -16 -10 -5 0 -9 5 -9 10 0 6 7 10 16 10 8 0 12 -4 9 -10z m1328
-17 c-7 -2 -19 -2 -25 0 -7 3 -2 5 12 5 14 0 19 -2 13 -5z m-1353 -13 c0 -5
-4 -10 -9 -10 -6 0 -13 5 -16 10 -3 6 1 10 9 10 9 0 16 -4 16 -10z m18340 -60
c0 -5 -2 -10 -4 -10 -3 0 -8 5 -11 10 -3 6 -1 10 4 10 6 0 11 -4 11 -10z m45
-50 c3 -5 -3 -10 -15 -10 -12 0 -18 5 -15 10 3 6 10 10 15 10 5 0 12 -4 15
-10z m46 -7 c13 -16 12 -17 -3 -4 -17 13 -22 21 -14 21 2 0 10 -8 17 -17z
m-17321 -73 c0 -5 -4 -10 -10 -10 -5 0 -10 5 -10 10 0 6 5 10 10 10 6 0 10 -4
10 -10z m10 -29 c0 -5 -7 -11 -15 -15 -8 -3 -15 -1 -15 5 0 6 -5 7 -12 3 -7
-4 -8 -3 -4 4 8 14 46 16 46 3z m-44 -498 c1 -13 -1 -22 -5 -20 -35 16 -61 32
-61 37 0 3 15 6 33 6 26 0 32 -4 33 -23z m114 10 c0 -15 -2 -16 -10 -3 -8 13
-12 12 -25 -7 -16 -22 -55 -32 -55 -14 0 26 14 36 50 39 33 2 40 -1 40 -15z
m-362 -345 c-6 -18 -28 -21 -28 -4 0 9 7 16 16 16 9 0 14 -5 12 -12z m32 -53
c0 -8 -4 -15 -9 -15 -13 0 -22 16 -14 24 11 11 23 6 23 -9z m545 -35 c10 -30
-5 -47 -22 -25 -7 11 -13 25 -13 32 0 21 28 15 35 -7z m-385 -3 c0 -7 -5 -18
-12 -25 -9 -9 -8 -12 4 -12 11 0 15 -6 11 -20 -5 -20 12 -50 29 -50 5 0 4 9
-2 20 -14 26 -3 68 18 66 9 0 16 5 15 12 -3 14 23 17 32 3 3 -5 1 -12 -5 -16
-20 -12 -9 -30 20 -32 18 -1 30 3 30 10 0 8 3 7 9 -2 8 -12 16 -11 50 6 38 19
41 19 36 3 -4 -13 -1 -17 12 -16 13 1 17 -5 15 -24 -1 -13 -6 -27 -10 -30 -4
-3 -9 -16 -11 -30 -1 -14 -7 -28 -13 -31 -15 -10 -78 -2 -94 12 -12 10 -13 14
0 28 9 10 11 23 6 36 -9 20 -15 7 -11 -22 2 -15 -25 -17 -34 -3 -3 6 -15 10
-27 10 -17 0 -18 -2 -8 -15 7 -9 10 -18 6 -22 -3 -3 -6 -2 -6 4 0 15 -36 23
-49 10 -8 -8 -11 -3 -11 17 0 21 -4 27 -17 24 -10 -2 -22 -13 -28 -26 -5 -12
-13 -22 -17 -22 -9 0 -7 52 2 60 3 3 10 15 17 26 11 20 9 22 -18 28 -18 3 -28
10 -24 16 4 6 14 8 23 6 10 -3 24 -1 32 4 21 13 30 12 30 -3z m353 -22 c20
-42 20 -45 7 -45 -5 0 -10 6 -10 14 0 7 -7 19 -15 26 -8 7 -15 19 -15 26 0 25
16 15 33 -21z m-555 -16 c2 -14 -2 -36 -7 -49 -8 -20 -9 -17 -4 18 4 28 2 42
-6 42 -6 0 -11 5 -11 11 0 22 25 2 28 -22z m-81 -11 c-3 -7 -5 -2 -5 12 0 14
2 19 5 13 2 -7 2 -19 0 -25z m583 22 c0 -5 -4 -10 -10 -10 -5 0 -10 5 -10 10
0 6 5 10 10 10 6 0 10 -4 10 -10z m160 6 c0 -3 -4 -8 -10 -11 -5 -3 -10 -1
-10 4 0 6 5 11 10 11 6 0 10 -2 10 -4z m-713 -48 c-3 -8 -6 -5 -6 6 -1 11 2
17 5 13 3 -3 4 -12 1 -19z m116 -28 c-3 -11 -7 -20 -9 -20 -2 0 -4 9 -4 20 0
11 4 20 9 20 5 0 7 -9 4 -20z m-173 0 c0 -5 -4 -10 -10 -10 -5 0 -10 5 -10 10
0 6 5 10 10 10 6 0 10 -4 10 -10z m300 -50 c0 -5 -7 -10 -16 -10 -8 0 -12 5
-9 10 3 6 10 10 16 10 5 0 9 -4 9 -10z"/>
<path d="M27795 19990 c-3 -5 -1 -10 4 -10 6 0 11 5 11 10 0 6 -2 10 -4 10 -3
0 -8 -4 -11 -10z"/>
<path d="M27990 19956 c0 -11 30 -39 36 -34 2 3 -5 13 -16 23 -11 10 -20 15
-20 11z"/>
<path d="M26780 19850 c0 -4 9 -10 21 -13 12 -3 19 -1 17 5 -5 13 -38 20 -38
8z"/>
<path d="M27077 19409 c-4 -16 -3 -18 9 -8 7 6 11 15 8 20 -8 13 -11 11 -17
-12z"/>
<path d="M27080 19370 c0 -5 5 -10 10 -10 6 0 10 5 10 10 0 6 -4 10 -10 10 -5
0 -10 -4 -10 -10z"/>
<path d="M27110 19360 c0 -5 5 -10 10 -10 6 0 10 5 10 10 0 6 -4 10 -10 10 -5
0 -10 -4 -10 -10z"/>
<path d="M27170 19320 c-8 -5 -10 -10 -5 -10 6 0 17 5 25 10 8 5 11 10 5 10
-5 0 -17 -5 -25 -10z"/>
<path d="M28245 19390 c-3 -5 -2 -10 4 -10 5 0 13 5 16 10 3 6 2 10 -4 10 -5
0 -13 -4 -16 -10z"/>
<path d="M28590 19330 c0 -5 5 -10 10 -10 6 0 10 5 10 10 0 6 -4 10 -10 10 -5
0 -10 -4 -10 -10z"/>
<path d="M28646 19324 c-9 -24 -7 -28 9 -14 17 14 20 30 6 30 -5 0 -12 -7 -15
-16z"/>
<path d="M26410 19300 c0 -5 5 -10 11 -10 5 0 7 5 4 10 -3 6 -8 10 -11 10 -2
0 -4 -4 -4 -10z"/>
<path d="M26636 19285 c4 -8 11 -15 16 -15 6 0 5 6 -2 15 -7 8 -14 15 -16 15
-2 0 -1 -7 2 -15z"/>
<path d="M26400 19274 c0 -3 6 -12 14 -20 11 -10 17 -11 22 -3 3 6 0 15 -7 20
-16 10 -29 12 -29 3z"/>
<path d="M26365 19250 c-4 -6 5 -10 20 -10 15 0 24 4 20 10 -3 6 -12 10 -20
10 -8 0 -17 -4 -20 -10z"/>
<path d="M26320 19229 c0 -5 5 -7 10 -4 6 3 10 8 10 11 0 2 -4 4 -10 4 -5 0
-10 -5 -10 -11z"/>
<path d="M26663 19163 c9 -2 23 -2 30 0 6 3 -1 5 -18 5 -16 0 -22 -2 -12 -5z"/>
<path d="M26715 19160 c-4 -6 3 -10 14 -10 25 0 27 6 6 13 -8 4 -17 2 -20 -3z"/>
<path d="M26915 19120 c4 -6 11 -8 16 -5 14 9 11 15 -7 15 -8 0 -12 -5 -9 -10z"/>
<path d="M28276 18974 c-8 -20 -8 -21 27 -29 32 -8 33 -5 8 23 -22 26 -27 27
-35 6z"/>
<path d="M28395 18940 c-3 -5 -17 -10 -31 -10 -29 0 -30 -6 -5 -43 17 -27 19
-27 24 -8 4 15 0 21 -11 22 -13 0 -12 2 4 9 12 4 24 15 27 24 7 18 2 22 -8 6z"/>
<path d="M28440 18924 c0 -9 -5 -12 -12 -8 -7 4 -8 3 -4 -5 6 -9 11 -9 22 0 7
6 11 15 8 20 -8 14 -14 11 -14 -7z"/>
<path d="M26432 18999 c-28 -11 -20 -29 13 -29 14 0 25 -7 27 -17 3 -13 6 -10
10 10 4 19 1 27 -9 27 -8 0 -11 5 -8 10 7 12 -2 12 -33 -1z"/>
<path d="M26425 18950 c-3 -5 1 -10 9 -10 9 0 16 5 16 10 0 6 -4 10 -9 10 -6
0 -13 -4 -16 -10z"/>
<path d="M26416 18912 c-2 -4 4 -13 15 -20 21 -13 22 -12 13 12 -7 17 -20 21
-28 8z"/>
<path d="M26615 18770 c-3 -5 -1 -10 4 -10 6 0 11 5 11 10 0 6 -2 10 -4 10 -3
0 -8 -4 -11 -10z"/>
<path d="M26855 18350 c-19 -8 -19 -9 2 -9 12 -1 25 4 28 9 7 12 -2 12 -30 0z"/>
<path d="M26728 18323 c7 -3 16 -2 19 1 4 3 -2 6 -13 5 -11 0 -14 -3 -6 -6z"/>
<path d="M28370 17920 c0 -5 5 -10 11 -10 5 0 7 5 4 10 -3 6 -8 10 -11 10 -2
0 -4 -4 -4 -10z"/>
<path d="M28290 17892 c0 -11 51 -34 58 -27 4 3 -4 8 -16 12 -12 3 -22 9 -22
14 0 5 -4 9 -10 9 -5 0 -10 -4 -10 -8z"/>
<path d="M28362 17884 c1 -9 9 -19 16 -22 9 -3 13 2 10 14 -1 9 -9 19 -16 22
-9 3 -13 -2 -10 -14z"/>
<path d="M28453 17867 c15 -6 27 -14 27 -18 0 -4 10 -5 22 -1 21 5 21 5 -3 14
-13 6 -35 11 -49 13 -24 3 -24 3 3 -8z"/>
<path d="M28426 17831 c-17 -6 -17 -8 -3 -14 8 -3 21 1 27 9 13 15 6 17 -24 5z"/>
<path d="M28576 17787 c3 -10 9 -15 12 -12 3 3 0 11 -7 18 -10 9 -11 8 -5 -6z"/>
<path d="M28536 17724 c-9 -24 -2 -26 12 -4 7 11 8 20 3 20 -5 0 -12 -7 -15
-16z"/>
<path d="M28480 17705 c10 -12 10 -15 -4 -15 -9 0 -16 -8 -16 -17 0 -11 3 -14
8 -7 4 6 15 14 26 17 15 6 16 10 6 22 -7 8 -17 15 -22 15 -6 0 -5 -7 2 -15z"/>
<path d="M28660 17691 c0 -5 5 -13 10 -16 6 -3 10 -2 10 4 0 5 -4 13 -10 16
-5 3 -10 2 -10 -4z"/>
<path d="M28712 17664 c-7 -8 -8 -14 -3 -14 10 0 25 19 20 25 -2 1 -10 -3 -17
-11z"/>
<path d="M28630 17591 c0 -5 5 -13 10 -16 6 -3 10 -2 10 4 0 5 -4 13 -10 16
-5 3 -10 2 -10 -4z"/>
<path d="M26775 17909 c-5 -6 -1 -15 8 -20 9 -6 13 -18 10 -31 -4 -19 -3 -20
6 -7 8 13 7 24 -3 44 -9 18 -16 23 -21 14z"/>
<path d="M26736 17872 c-2 -4 -1 -14 3 -21 6 -9 11 -10 15 -2 4 6 2 11 -4 11
-6 0 -8 5 -5 10 3 6 4 10 1 10 -3 0 -7 -4 -10 -8z"/>
<path d="M26602 17850 c0 -14 2 -19 5 -12 2 6 2 18 0 25 -3 6 -5 1 -5 -13z"/>
<path d="M26497 17832 c-12 -18 1 -49 23 -55 23 -6 27 8 6 16 -8 3 -16 16 -18
29 -2 16 -6 19 -11 10z"/>
<path d="M26530 17821 c0 -5 5 -13 10 -16 6 -3 10 -2 10 4 0 5 -4 13 -10 16
-5 3 -10 2 -10 -4z"/>
<path d="M26582 17794 c-9 -10 -9 -14 -1 -14 6 0 9 -7 5 -15 -4 -11 1 -15 19
-15 16 0 25 6 25 16 0 8 -5 12 -10 9 -6 -3 -14 3 -18 13 -6 17 -9 18 -20 6z"/>
<path d="M26690 17800 c0 -5 5 -10 10 -10 6 0 10 5 10 10 0 6 -4 10 -10 10 -5
0 -10 -4 -10 -10z"/>
<path d="M26766 17783 c-6 -14 -5 -15 5 -6 7 7 10 15 7 18 -3 3 -9 -2 -12 -12z"/>
<path d="M26460 17776 c0 -14 29 -31 38 -22 5 5 -23 36 -32 36 -3 0 -6 -6 -6
-14z"/>
<path d="M26640 17779 c0 -5 5 -7 10 -4 6 3 10 8 10 11 0 2 -4 4 -10 4 -5 0
-10 -5 -10 -11z"/>
<path d="M26420 17770 c0 -5 5 -10 10 -10 6 0 10 5 10 10 0 6 -4 10 -10 10 -5
0 -10 -4 -10 -10z"/>
<path d="M26445 17730 c3 -5 11 -10 16 -10 6 0 7 5 4 10 -3 6 -11 10 -16 10
-6 0 -7 -4 -4 -10z"/>
<path d="M26425 17710 c3 -5 8 -10 11 -10 2 0 4 5 4 10 0 6 -5 10 -11 10 -5 0
-7 -4 -4 -10z"/>
<path d="M26395 17690 c3 -5 8 -10 11 -10 2 0 4 5 4 10 0 6 -5 10 -11 10 -5 0
-7 -4 -4 -10z"/>
<path d="M26339 17665 c-3 -2 -3 -21 -1 -41 3 -25 10 -38 23 -41 10 -3 20 -12
22 -22 3 -11 5 -9 6 7 0 12 6 22 11 22 6 0 10 5 10 10 0 7 -6 7 -18 1 -33 -18
-58 29 -30 57 9 9 9 12 -3 12 -9 0 -18 -2 -20 -5z"/>
<path d="M26390 17641 c0 -25 6 -27 13 -6 4 8 2 17 -3 20 -6 4 -10 -3 -10 -14z"/>
<path d="M26430 17650 c0 -5 5 -10 10 -10 6 0 10 5 10 10 0 6 -4 10 -10 10 -5
0 -10 -4 -10 -10z"/>
<path d="M26692 17631 c2 -7 7 -12 11 -12 12 1 9 15 -3 20 -7 2 -11 -2 -8 -8z"/>
<path d="M26630 17590 c0 -5 5 -10 10 -10 6 0 10 5 10 10 0 6 -4 10 -10 10 -5
0 -10 -4 -10 -10z"/>
<path d="M26352 17538 c3 -7 13 -15 23 -17 17 -3 17 -2 3 13 -20 19 -31 21
-26 4z"/>
<path d="M26497 17531 c-4 -17 -3 -21 5 -13 5 5 8 16 6 23 -3 8 -7 3 -11 -10z"/>
<path d="M26558 17543 c7 -3 16 -2 19 1 4 3 -2 6 -13 5 -11 0 -14 -3 -6 -6z"/>
<path d="M26520 17520 c0 -5 5 -10 10 -10 6 0 10 5 10 10 0 6 -4 10 -10 10 -5
0 -10 -4 -10 -10z"/>
<path d="M26453 17467 c1 -15 5 -27 10 -27 10 0 9 22 -2 39 -7 10 -9 7 -8 -12z"/>
<path d="M27365 17410 c-3 -5 -1 -10 4 -10 6 0 11 5 11 10 0 6 -2 10 -4 10 -3
0 -8 -4 -11 -10z"/>
<path d="M27635 16070 c3 -5 8 -10 11 -10 2 0 4 5 4 10 0 6 -5 10 -11 10 -5 0
-7 -4 -4 -10z"/>
</g>
</svg>
